<mxfile host="app.diagrams.net" agent="Mozilla/5.0 (Windows NT 10.0; Win64; x64) AppleWebKit/537.36 (KHTML, like Gecko) Chrome/130.0.0.0 Safari/537.36 Edg/130.0.0.0" version="24.8.4">
  <diagram name="Page-1" id="e7e014a7-5840-1c2e-5031-d8a46d1fe8dd">
    <mxGraphModel dx="1773" dy="656" grid="1" gridSize="10" guides="1" tooltips="1" connect="1" arrows="1" fold="1" page="1" pageScale="1" pageWidth="1169" pageHeight="826" background="none" math="0" shadow="0">
      <root>
        <mxCell id="0" />
        <mxCell id="1" parent="0" />
        <mxCell id="GeJe9mdbyyPjrDypoR-b-41" value="Người quản trị" style="swimlane;whiteSpace=wrap" vertex="1" parent="1">
          <mxGeometry x="-80" y="128" width="840" height="1342" as="geometry" />
        </mxCell>
        <mxCell id="GeJe9mdbyyPjrDypoR-b-42" value="" style="ellipse;shape=startState;fillColor=#000000;strokeColor=#ff0000;" vertex="1" parent="GeJe9mdbyyPjrDypoR-b-41">
          <mxGeometry x="385" y="42" width="30" height="30" as="geometry" />
        </mxCell>
        <mxCell id="GeJe9mdbyyPjrDypoR-b-43" value="Đăng nhập" style="rounded=1;whiteSpace=wrap;html=1;" vertex="1" parent="GeJe9mdbyyPjrDypoR-b-41">
          <mxGeometry x="339.9972727272725" y="112" width="120" height="60" as="geometry" />
        </mxCell>
        <mxCell id="GeJe9mdbyyPjrDypoR-b-44" value="" style="edgeStyle=elbowEdgeStyle;elbow=horizontal;verticalAlign=bottom;endArrow=open;endSize=8;strokeColor=#FF0000;endFill=1;rounded=0;exitX=0.562;exitY=0.836;exitDx=0;exitDy=0;exitPerimeter=0;" edge="1" parent="GeJe9mdbyyPjrDypoR-b-41">
          <mxGeometry x="100" y="40" as="geometry">
            <mxPoint x="399.97" y="112" as="targetPoint" />
            <mxPoint x="399.8299999999999" y="67.07999999999998" as="sourcePoint" />
          </mxGeometry>
        </mxCell>
        <mxCell id="GeJe9mdbyyPjrDypoR-b-45" value="" style="edgeStyle=orthogonalEdgeStyle;rounded=0;orthogonalLoop=1;jettySize=auto;html=1;strokeColor=#FF0000;fillColor=#FF2605;" edge="1" parent="GeJe9mdbyyPjrDypoR-b-41" source="GeJe9mdbyyPjrDypoR-b-46" target="GeJe9mdbyyPjrDypoR-b-47">
          <mxGeometry relative="1" as="geometry" />
        </mxCell>
        <mxCell id="GeJe9mdbyyPjrDypoR-b-46" value="Lựa chọn chức năng" style="rounded=1;whiteSpace=wrap;html=1;" vertex="1" parent="GeJe9mdbyyPjrDypoR-b-41">
          <mxGeometry x="345" y="272" width="120" height="58" as="geometry" />
        </mxCell>
        <mxCell id="GeJe9mdbyyPjrDypoR-b-47" value="" style="whiteSpace=wrap;html=1;rounded=0;shadow=0;comic=0;labelBackgroundColor=none;strokeWidth=1;fillColor=#FF170F;fontFamily=Verdana;fontSize=12;align=center;rotation=0;strokeColor=#FF0800;" vertex="1" parent="GeJe9mdbyyPjrDypoR-b-41">
          <mxGeometry x="331.5" y="382" width="147" height="10" as="geometry" />
        </mxCell>
        <mxCell id="GeJe9mdbyyPjrDypoR-b-48" value="Thêm nhân viên" style="rounded=1;whiteSpace=wrap;html=1;" vertex="1" parent="GeJe9mdbyyPjrDypoR-b-41">
          <mxGeometry x="110" y="462" width="120" height="60" as="geometry" />
        </mxCell>
        <mxCell id="GeJe9mdbyyPjrDypoR-b-49" value="Sửa nhân viên" style="rounded=1;whiteSpace=wrap;html=1;" vertex="1" parent="GeJe9mdbyyPjrDypoR-b-41">
          <mxGeometry x="270" y="462" width="120" height="60" as="geometry" />
        </mxCell>
        <mxCell id="GeJe9mdbyyPjrDypoR-b-50" value="Xóa nhân viên" style="rounded=1;whiteSpace=wrap;html=1;" vertex="1" parent="GeJe9mdbyyPjrDypoR-b-41">
          <mxGeometry x="440" y="462" width="120" height="60" as="geometry" />
        </mxCell>
        <mxCell id="GeJe9mdbyyPjrDypoR-b-51" value="Tìm kiếm nhân viên" style="rounded=1;whiteSpace=wrap;html=1;" vertex="1" parent="GeJe9mdbyyPjrDypoR-b-41">
          <mxGeometry x="590" y="462" width="120" height="60" as="geometry" />
        </mxCell>
        <mxCell id="GeJe9mdbyyPjrDypoR-b-52" value="" style="edgeStyle=orthogonalEdgeStyle;rounded=0;orthogonalLoop=1;jettySize=auto;html=1;strokeColor=#FF0000;fillColor=#FF2605;" edge="1" parent="GeJe9mdbyyPjrDypoR-b-41" source="GeJe9mdbyyPjrDypoR-b-53" target="GeJe9mdbyyPjrDypoR-b-54">
          <mxGeometry relative="1" as="geometry" />
        </mxCell>
        <mxCell id="GeJe9mdbyyPjrDypoR-b-53" value="" style="whiteSpace=wrap;html=1;rounded=0;shadow=0;comic=0;labelBackgroundColor=none;strokeWidth=1;fillColor=#FF170F;fontFamily=Verdana;fontSize=12;align=center;rotation=0;strokeColor=#FF0800;" vertex="1" parent="GeJe9mdbyyPjrDypoR-b-41">
          <mxGeometry x="331.5" y="582" width="147" height="10" as="geometry" />
        </mxCell>
        <mxCell id="GeJe9mdbyyPjrDypoR-b-54" value="Nhập thông tin nhân viên" style="rounded=1;whiteSpace=wrap;html=1;" vertex="1" parent="GeJe9mdbyyPjrDypoR-b-41">
          <mxGeometry x="345" y="662" width="120" height="60" as="geometry" />
        </mxCell>
        <mxCell id="GeJe9mdbyyPjrDypoR-b-55" value="Lưu thông tin" style="rounded=1;whiteSpace=wrap;html=1;" vertex="1" parent="GeJe9mdbyyPjrDypoR-b-41">
          <mxGeometry x="345" y="772" width="120" height="60" as="geometry" />
        </mxCell>
        <mxCell id="GeJe9mdbyyPjrDypoR-b-56" value="" style="edgeStyle=orthogonalEdgeStyle;rounded=0;orthogonalLoop=1;jettySize=auto;html=1;strokeColor=#FF0000;fillColor=#FF0000;" edge="1" parent="GeJe9mdbyyPjrDypoR-b-41" source="GeJe9mdbyyPjrDypoR-b-57" target="GeJe9mdbyyPjrDypoR-b-59">
          <mxGeometry relative="1" as="geometry" />
        </mxCell>
        <mxCell id="GeJe9mdbyyPjrDypoR-b-57" value="Chấp nhận" style="rounded=1;whiteSpace=wrap;html=1;" vertex="1" parent="GeJe9mdbyyPjrDypoR-b-41">
          <mxGeometry x="345" y="1062" width="120" height="60" as="geometry" />
        </mxCell>
        <mxCell id="GeJe9mdbyyPjrDypoR-b-58" value="" style="edgeStyle=orthogonalEdgeStyle;rounded=0;orthogonalLoop=1;jettySize=auto;html=1;strokeColor=#FF0000;fillColor=#FF0000;" edge="1" parent="GeJe9mdbyyPjrDypoR-b-41" source="GeJe9mdbyyPjrDypoR-b-59" target="GeJe9mdbyyPjrDypoR-b-60">
          <mxGeometry relative="1" as="geometry" />
        </mxCell>
        <mxCell id="GeJe9mdbyyPjrDypoR-b-59" value="" style="rhombus;whiteSpace=wrap;html=1;" vertex="1" parent="GeJe9mdbyyPjrDypoR-b-41">
          <mxGeometry x="375" y="1182" width="60" height="28" as="geometry" />
        </mxCell>
        <mxCell id="GeJe9mdbyyPjrDypoR-b-60" value="" style="ellipse;html=1;shape=endState;fillColor=#000000;strokeColor=#ff0000;" vertex="1" parent="GeJe9mdbyyPjrDypoR-b-41">
          <mxGeometry x="390" y="1272" width="30" height="30" as="geometry" />
        </mxCell>
        <mxCell id="GeJe9mdbyyPjrDypoR-b-61" value="" style="endArrow=classic;html=1;rounded=0;exitX=0.5;exitY=1;exitDx=0;exitDy=0;entryX=0.5;entryY=0;entryDx=0;entryDy=0;fillColor=#FF0505;strokeColor=#FF3F05;" edge="1" parent="GeJe9mdbyyPjrDypoR-b-41" source="GeJe9mdbyyPjrDypoR-b-47" target="GeJe9mdbyyPjrDypoR-b-48">
          <mxGeometry width="50" height="50" relative="1" as="geometry">
            <mxPoint x="405" y="398" as="sourcePoint" />
            <mxPoint x="160" y="462" as="targetPoint" />
          </mxGeometry>
        </mxCell>
        <mxCell id="GeJe9mdbyyPjrDypoR-b-62" value="" style="endArrow=classic;html=1;rounded=0;exitX=0.5;exitY=1;exitDx=0;exitDy=0;entryX=0.5;entryY=0;entryDx=0;entryDy=0;fillColor=#FF0505;strokeColor=#FF3F05;" edge="1" parent="GeJe9mdbyyPjrDypoR-b-41" source="GeJe9mdbyyPjrDypoR-b-47" target="GeJe9mdbyyPjrDypoR-b-49">
          <mxGeometry width="50" height="50" relative="1" as="geometry">
            <mxPoint x="470" y="372" as="sourcePoint" />
            <mxPoint x="225" y="436" as="targetPoint" />
          </mxGeometry>
        </mxCell>
        <mxCell id="GeJe9mdbyyPjrDypoR-b-63" value="" style="endArrow=classic;html=1;rounded=0;exitX=0.5;exitY=1;exitDx=0;exitDy=0;entryX=0.5;entryY=0;entryDx=0;entryDy=0;fillColor=#FF0505;strokeColor=#FF3F05;" edge="1" parent="GeJe9mdbyyPjrDypoR-b-41" source="GeJe9mdbyyPjrDypoR-b-47" target="GeJe9mdbyyPjrDypoR-b-51">
          <mxGeometry width="50" height="50" relative="1" as="geometry">
            <mxPoint x="490" y="392" as="sourcePoint" />
            <mxPoint x="245" y="456" as="targetPoint" />
          </mxGeometry>
        </mxCell>
        <mxCell id="GeJe9mdbyyPjrDypoR-b-64" value="" style="endArrow=classic;html=1;rounded=0;exitX=0.5;exitY=1;exitDx=0;exitDy=0;entryX=0.5;entryY=0;entryDx=0;entryDy=0;fillColor=#FF0505;strokeColor=#FF3F05;" edge="1" parent="GeJe9mdbyyPjrDypoR-b-41" source="GeJe9mdbyyPjrDypoR-b-48" target="GeJe9mdbyyPjrDypoR-b-53">
          <mxGeometry width="50" height="50" relative="1" as="geometry">
            <mxPoint x="395" y="582" as="sourcePoint" />
            <mxPoint x="150" y="646" as="targetPoint" />
          </mxGeometry>
        </mxCell>
        <mxCell id="GeJe9mdbyyPjrDypoR-b-65" value="" style="endArrow=classic;html=1;rounded=0;exitX=0.5;exitY=1;exitDx=0;exitDy=0;entryX=0.5;entryY=0;entryDx=0;entryDy=0;fillColor=#FF0505;strokeColor=#FF3F05;" edge="1" parent="GeJe9mdbyyPjrDypoR-b-41" source="GeJe9mdbyyPjrDypoR-b-50" target="GeJe9mdbyyPjrDypoR-b-53">
          <mxGeometry width="50" height="50" relative="1" as="geometry">
            <mxPoint x="190" y="542" as="sourcePoint" />
            <mxPoint x="425" y="602" as="targetPoint" />
          </mxGeometry>
        </mxCell>
        <mxCell id="GeJe9mdbyyPjrDypoR-b-66" value="" style="endArrow=classic;html=1;rounded=0;exitX=0.5;exitY=1;exitDx=0;exitDy=0;fillColor=#FF0505;strokeColor=#FF3F05;entryX=0.5;entryY=0;entryDx=0;entryDy=0;" edge="1" parent="GeJe9mdbyyPjrDypoR-b-41" source="GeJe9mdbyyPjrDypoR-b-51" target="GeJe9mdbyyPjrDypoR-b-53">
          <mxGeometry width="50" height="50" relative="1" as="geometry">
            <mxPoint x="200" y="552" as="sourcePoint" />
            <mxPoint x="405" y="585" as="targetPoint" />
          </mxGeometry>
        </mxCell>
        <mxCell id="GeJe9mdbyyPjrDypoR-b-67" value="" style="endArrow=classic;html=1;rounded=0;fillColor=#FF0505;strokeColor=#FF3F05;exitX=0.5;exitY=1;exitDx=0;exitDy=0;entryX=0.5;entryY=0;entryDx=0;entryDy=0;" edge="1" parent="GeJe9mdbyyPjrDypoR-b-41" source="GeJe9mdbyyPjrDypoR-b-47" target="GeJe9mdbyyPjrDypoR-b-50">
          <mxGeometry width="50" height="50" relative="1" as="geometry">
            <mxPoint x="540" y="392" as="sourcePoint" />
            <mxPoint x="375" y="446" as="targetPoint" />
          </mxGeometry>
        </mxCell>
        <mxCell id="GeJe9mdbyyPjrDypoR-b-68" value="" style="endArrow=classic;html=1;rounded=0;exitX=0.5;exitY=1;exitDx=0;exitDy=0;fillColor=#FF0505;strokeColor=#FF3F05;entryX=0.5;entryY=1;entryDx=0;entryDy=0;" edge="1" parent="GeJe9mdbyyPjrDypoR-b-41" source="GeJe9mdbyyPjrDypoR-b-49" target="GeJe9mdbyyPjrDypoR-b-53">
          <mxGeometry width="50" height="50" relative="1" as="geometry">
            <mxPoint x="320" y="532" as="sourcePoint" />
            <mxPoint x="540" y="582" as="targetPoint" />
          </mxGeometry>
        </mxCell>
        <mxCell id="GeJe9mdbyyPjrDypoR-b-69" value="Đồng ý" style="text;html=1;align=center;verticalAlign=middle;whiteSpace=wrap;rounded=0;" vertex="1" parent="GeJe9mdbyyPjrDypoR-b-41">
          <mxGeometry x="450" y="1152" width="60" height="30" as="geometry" />
        </mxCell>
        <mxCell id="GeJe9mdbyyPjrDypoR-b-70" value="Hủy bỏ" style="text;html=1;align=center;verticalAlign=middle;whiteSpace=wrap;rounded=0;" vertex="1" parent="GeJe9mdbyyPjrDypoR-b-41">
          <mxGeometry x="375" y="1222" width="60" height="30" as="geometry" />
        </mxCell>
        <mxCell id="GeJe9mdbyyPjrDypoR-b-71" value="Không hoàn tất" style="text;html=1;align=center;verticalAlign=middle;whiteSpace=wrap;rounded=0;fontStyle=2" vertex="1" parent="GeJe9mdbyyPjrDypoR-b-41">
          <mxGeometry x="460" y="1272" width="100" height="30" as="geometry" />
        </mxCell>
        <mxCell id="GeJe9mdbyyPjrDypoR-b-72" value="Hệ thống" style="swimlane;whiteSpace=wrap" vertex="1" parent="1">
          <mxGeometry x="760" y="128" width="490" height="1342" as="geometry" />
        </mxCell>
        <mxCell id="GeJe9mdbyyPjrDypoR-b-73" value="Kiểm tra mật khẩu" style="rounded=1;whiteSpace=wrap;html=1;" vertex="1" parent="GeJe9mdbyyPjrDypoR-b-72">
          <mxGeometry x="215" y="112" width="120" height="60" as="geometry" />
        </mxCell>
        <mxCell id="GeJe9mdbyyPjrDypoR-b-74" value="" style="rhombus;whiteSpace=wrap;html=1;" vertex="1" parent="GeJe9mdbyyPjrDypoR-b-72">
          <mxGeometry x="245" y="212" width="60" height="28" as="geometry" />
        </mxCell>
        <mxCell id="GeJe9mdbyyPjrDypoR-b-75" style="edgeStyle=orthogonalEdgeStyle;rounded=0;orthogonalLoop=1;jettySize=auto;html=1;exitX=0.5;exitY=1;exitDx=0;exitDy=0;entryX=0.5;entryY=0;entryDx=0;entryDy=0;fillColor=#FF1C03;strokeColor=#FF3300;" edge="1" parent="GeJe9mdbyyPjrDypoR-b-72" source="GeJe9mdbyyPjrDypoR-b-73" target="GeJe9mdbyyPjrDypoR-b-74">
          <mxGeometry relative="1" as="geometry">
            <mxPoint x="-270" y="232" as="sourcePoint" />
            <mxPoint x="290" y="232" as="targetPoint" />
          </mxGeometry>
        </mxCell>
        <mxCell id="GeJe9mdbyyPjrDypoR-b-76" value="Hiển thị danh sách nhân viên" style="rounded=1;whiteSpace=wrap;html=1;" vertex="1" parent="GeJe9mdbyyPjrDypoR-b-72">
          <mxGeometry x="220" y="272" width="120" height="60" as="geometry" />
        </mxCell>
        <mxCell id="GeJe9mdbyyPjrDypoR-b-77" style="edgeStyle=orthogonalEdgeStyle;rounded=0;orthogonalLoop=1;jettySize=auto;html=1;entryX=0.458;entryY=0;entryDx=0;entryDy=0;fillColor=#FF1C03;strokeColor=#FF3300;exitX=0.5;exitY=1;exitDx=0;exitDy=0;entryPerimeter=0;" edge="1" parent="GeJe9mdbyyPjrDypoR-b-72" source="GeJe9mdbyyPjrDypoR-b-74" target="GeJe9mdbyyPjrDypoR-b-76">
          <mxGeometry relative="1" as="geometry">
            <mxPoint x="310" y="192" as="sourcePoint" />
            <mxPoint x="285" y="222" as="targetPoint" />
          </mxGeometry>
        </mxCell>
        <mxCell id="GeJe9mdbyyPjrDypoR-b-78" value="Cung cấp thông tin phản hồi" style="rounded=1;whiteSpace=wrap;html=1;" vertex="1" parent="GeJe9mdbyyPjrDypoR-b-72">
          <mxGeometry x="220" y="662" width="120" height="60" as="geometry" />
        </mxCell>
        <mxCell id="GeJe9mdbyyPjrDypoR-b-79" value="" style="edgeStyle=orthogonalEdgeStyle;rounded=0;orthogonalLoop=1;jettySize=auto;html=1;strokeColor=#FF0000;fillColor=#FF0000;" edge="1" parent="GeJe9mdbyyPjrDypoR-b-72" source="GeJe9mdbyyPjrDypoR-b-80" target="GeJe9mdbyyPjrDypoR-b-81">
          <mxGeometry relative="1" as="geometry" />
        </mxCell>
        <mxCell id="GeJe9mdbyyPjrDypoR-b-80" value="Hiển thị danh sách nhân viên vừa cập nhật" style="rounded=1;whiteSpace=wrap;html=1;" vertex="1" parent="GeJe9mdbyyPjrDypoR-b-72">
          <mxGeometry x="220" y="912" width="120" height="60" as="geometry" />
        </mxCell>
        <mxCell id="GeJe9mdbyyPjrDypoR-b-81" value="" style="rhombus;whiteSpace=wrap;html=1;" vertex="1" parent="GeJe9mdbyyPjrDypoR-b-72">
          <mxGeometry x="250" y="1012" width="60" height="28" as="geometry" />
        </mxCell>
        <mxCell id="GeJe9mdbyyPjrDypoR-b-82" value="" style="ellipse;html=1;shape=endState;fillColor=#000000;strokeColor=#ff0000;" vertex="1" parent="GeJe9mdbyyPjrDypoR-b-72">
          <mxGeometry x="265" y="1272" width="30" height="30" as="geometry" />
        </mxCell>
        <mxCell id="GeJe9mdbyyPjrDypoR-b-83" value="" style="edgeStyle=orthogonalEdgeStyle;rounded=0;orthogonalLoop=1;jettySize=auto;html=1;strokeColor=#FF1303;fillColor=#FF2008;" edge="1" parent="GeJe9mdbyyPjrDypoR-b-72" source="GeJe9mdbyyPjrDypoR-b-84" target="GeJe9mdbyyPjrDypoR-b-82">
          <mxGeometry relative="1" as="geometry" />
        </mxCell>
        <mxCell id="GeJe9mdbyyPjrDypoR-b-84" value="Thông báo thành công" style="rounded=1;whiteSpace=wrap;html=1;" vertex="1" parent="GeJe9mdbyyPjrDypoR-b-72">
          <mxGeometry x="220" y="1166" width="120" height="60" as="geometry" />
        </mxCell>
        <mxCell id="GeJe9mdbyyPjrDypoR-b-85" value="Còn" style="text;html=1;align=center;verticalAlign=middle;whiteSpace=wrap;rounded=0;" vertex="1" parent="GeJe9mdbyyPjrDypoR-b-72">
          <mxGeometry x="200" y="982" width="60" height="30" as="geometry" />
        </mxCell>
        <mxCell id="GeJe9mdbyyPjrDypoR-b-86" value="Hết" style="text;html=1;align=center;verticalAlign=middle;whiteSpace=wrap;rounded=0;" vertex="1" parent="GeJe9mdbyyPjrDypoR-b-72">
          <mxGeometry x="295" y="1052" width="60" height="30" as="geometry" />
        </mxCell>
        <mxCell id="GeJe9mdbyyPjrDypoR-b-87" value="Hoàn tất" style="text;html=1;align=center;verticalAlign=middle;whiteSpace=wrap;rounded=0;fontStyle=2" vertex="1" parent="GeJe9mdbyyPjrDypoR-b-72">
          <mxGeometry x="320" y="1272" width="60" height="30" as="geometry" />
        </mxCell>
        <mxCell id="GeJe9mdbyyPjrDypoR-b-88" value="Thất bại" style="text;html=1;align=center;verticalAlign=middle;whiteSpace=wrap;rounded=0;" vertex="1" parent="GeJe9mdbyyPjrDypoR-b-72">
          <mxGeometry x="100" y="192" width="60" height="30" as="geometry" />
        </mxCell>
        <mxCell id="GeJe9mdbyyPjrDypoR-b-89" value="Thành công" style="text;html=1;align=center;verticalAlign=middle;whiteSpace=wrap;rounded=0;" vertex="1" parent="GeJe9mdbyyPjrDypoR-b-72">
          <mxGeometry x="232.5" y="240" width="85" height="30" as="geometry" />
        </mxCell>
        <mxCell id="GeJe9mdbyyPjrDypoR-b-90" style="edgeStyle=orthogonalEdgeStyle;rounded=0;orthogonalLoop=1;jettySize=auto;html=1;exitX=1;exitY=0.5;exitDx=0;exitDy=0;entryX=0;entryY=0.5;entryDx=0;entryDy=0;fillColor=#FF1C03;strokeColor=#FF3300;" edge="1" parent="1" source="GeJe9mdbyyPjrDypoR-b-43" target="GeJe9mdbyyPjrDypoR-b-73">
          <mxGeometry relative="1" as="geometry" />
        </mxCell>
        <mxCell id="GeJe9mdbyyPjrDypoR-b-91" style="edgeStyle=orthogonalEdgeStyle;rounded=0;orthogonalLoop=1;jettySize=auto;html=1;exitX=0;exitY=0.5;exitDx=0;exitDy=0;fillColor=#FF1C03;strokeColor=#FF3300;" edge="1" parent="1" source="GeJe9mdbyyPjrDypoR-b-74" target="GeJe9mdbyyPjrDypoR-b-43">
          <mxGeometry relative="1" as="geometry">
            <mxPoint x="245" y="280" as="sourcePoint" />
            <mxPoint x="170" y="310" as="targetPoint" />
          </mxGeometry>
        </mxCell>
        <mxCell id="GeJe9mdbyyPjrDypoR-b-92" style="edgeStyle=orthogonalEdgeStyle;rounded=0;orthogonalLoop=1;jettySize=auto;html=1;strokeColor=#FF0022;fillColor=#FF2200;" edge="1" parent="1" source="GeJe9mdbyyPjrDypoR-b-76" target="GeJe9mdbyyPjrDypoR-b-46">
          <mxGeometry relative="1" as="geometry" />
        </mxCell>
        <mxCell id="GeJe9mdbyyPjrDypoR-b-93" style="edgeStyle=orthogonalEdgeStyle;rounded=0;orthogonalLoop=1;jettySize=auto;html=1;entryX=0;entryY=0.5;entryDx=0;entryDy=0;strokeColor=#FF0000;fillColor=#FF0000;" edge="1" parent="1" source="GeJe9mdbyyPjrDypoR-b-54" target="GeJe9mdbyyPjrDypoR-b-78">
          <mxGeometry relative="1" as="geometry" />
        </mxCell>
        <mxCell id="GeJe9mdbyyPjrDypoR-b-94" style="edgeStyle=orthogonalEdgeStyle;rounded=0;orthogonalLoop=1;jettySize=auto;html=1;entryX=1;entryY=0.5;entryDx=0;entryDy=0;strokeColor=#FF0000;fillColor=#FF0000;" edge="1" parent="1" source="GeJe9mdbyyPjrDypoR-b-78" target="GeJe9mdbyyPjrDypoR-b-55">
          <mxGeometry relative="1" as="geometry">
            <Array as="points">
              <mxPoint x="1040" y="930" />
            </Array>
          </mxGeometry>
        </mxCell>
        <mxCell id="GeJe9mdbyyPjrDypoR-b-95" style="edgeStyle=orthogonalEdgeStyle;rounded=0;orthogonalLoop=1;jettySize=auto;html=1;entryX=0;entryY=0.5;entryDx=0;entryDy=0;strokeColor=#FF0000;fillColor=#FF0000;exitX=0.5;exitY=1;exitDx=0;exitDy=0;" edge="1" parent="1" source="GeJe9mdbyyPjrDypoR-b-55" target="GeJe9mdbyyPjrDypoR-b-80">
          <mxGeometry relative="1" as="geometry">
            <Array as="points">
              <mxPoint x="325" y="1070" />
            </Array>
          </mxGeometry>
        </mxCell>
        <mxCell id="GeJe9mdbyyPjrDypoR-b-96" style="edgeStyle=orthogonalEdgeStyle;rounded=0;orthogonalLoop=1;jettySize=auto;html=1;entryX=1;entryY=0.5;entryDx=0;entryDy=0;strokeColor=#FF0000;fillColor=#FF0000;" edge="1" parent="1" source="GeJe9mdbyyPjrDypoR-b-81" target="GeJe9mdbyyPjrDypoR-b-57">
          <mxGeometry relative="1" as="geometry">
            <Array as="points">
              <mxPoint x="1040" y="1220" />
            </Array>
          </mxGeometry>
        </mxCell>
        <mxCell id="GeJe9mdbyyPjrDypoR-b-97" style="edgeStyle=orthogonalEdgeStyle;rounded=0;orthogonalLoop=1;jettySize=auto;html=1;entryX=0;entryY=0.5;entryDx=0;entryDy=0;strokeColor=#FF0000;fillColor=#FF0000;" edge="1" parent="1" source="GeJe9mdbyyPjrDypoR-b-81" target="GeJe9mdbyyPjrDypoR-b-46">
          <mxGeometry relative="1" as="geometry">
            <Array as="points">
              <mxPoint x="-30" y="1154" />
              <mxPoint x="-30" y="429" />
            </Array>
          </mxGeometry>
        </mxCell>
        <mxCell id="GeJe9mdbyyPjrDypoR-b-98" style="edgeStyle=orthogonalEdgeStyle;rounded=0;orthogonalLoop=1;jettySize=auto;html=1;entryX=0;entryY=0.5;entryDx=0;entryDy=0;strokeColor=#FF1303;fillColor=#FF2008;" edge="1" parent="1" source="GeJe9mdbyyPjrDypoR-b-59" target="GeJe9mdbyyPjrDypoR-b-84">
          <mxGeometry relative="1" as="geometry" />
        </mxCell>
      </root>
    </mxGraphModel>
  </diagram>
</mxfile>
